<svg xmlns="http://www.w3.org/2000/svg" width="16" height="25" viewBox="0 0 16 25">
  <defs>
    <style>
      .cls-1 {
        fill: #fff5fe;
        fill-rule: evenodd;
      }
    </style>
  </defs>
  <path id="icon_mappin.svg" class="cls-1" d="M646.181,3156.6a32.691,32.691,0,0,0-2.71,4.3,34.653,34.653,0,0,0-2,6.1,21.685,21.685,0,0,0-2.706-6.34c-1.3-1.93-2.318-3.26-3.043-4.15a8.086,8.086,0,0,1-1.169-1.32,1.583,1.583,0,0,0-.141-0.14h0.04a8.481,8.481,0,0,1-1.452-4.76,8.005,8.005,0,1,1,16,0A8.388,8.388,0,0,1,646.181,3156.6Zm-5.173-9.2a2.71,2.71,0,1,0,2.666,2.71A2.686,2.686,0,0,0,641.008,3147.4Z" transform="translate(-633 -3142)"/>
</svg>
