<svg xmlns="http://www.w3.org/2000/svg" width="47.031" height="24.82" viewBox="0 0 47.031 24.82">
  <defs>
    <style>
      .cls-1 {
        fill: #fff5fe;
        fill-rule: evenodd;
      }
    </style>
  </defs>
  <path id="icon_tel.svg" class="cls-1" d="M637.542,3081.33c-3.352,6.74-6.793,11.27-11.739,9a2.58,2.58,0,0,1-1.093-.9,41.747,41.747,0,0,1-10.357,1.23c-1.262-.08-1.542-1.24-1.542-2.27,0-.02,0-0.04,0-0.06-0.969,1-2.367,2.33-3.66,2.33-1.248,0-1.534-1.21-1.541-2.23-0.9.92-2.918,2.49-3.7,2.49a0.817,0.817,0,0,1-.831-0.92,5.884,5.884,0,0,1,.641-1.96l-0.035-.04-1.594,1.3a6.207,6.207,0,0,1-1.836,1.17,2.544,2.544,0,0,1-1.485-1.79c-1.08,1-2.528,2.03-3.8,2.03-1.334,0-1.975-1.26-1.975-2.55,0-1.46.52-2.01,1.646-2.86a7.583,7.583,0,0,1,3.413-1.54,0.7,0.7,0,0,1,.779.81,3.138,3.138,0,0,1-1.837,2.3,0.716,0.716,0,0,1-.588-0.77l-1.455,1.1a1.267,1.267,0,0,0-.694,1.03,1.153,1.153,0,0,0,1.317.95,6.442,6.442,0,0,0,3.366-1.65c0.894-1.87,4.5-3.55,6.235-3.59a1.066,1.066,0,0,1,1.125.83c0,0.21.093,0.39-.063,0.44,0.329,0.14-.04.33-0.04,0.72,0,0.56-1.508,1.78-1.508,2.6a0.457,0.457,0,0,0,.537.42c0.719,0,1.692-.87,2.434-1.38a8.977,8.977,0,0,1,1.85-4.39c1.525-1.9,3.17-3.52,3.724-3.52,0.295,0,.364.42,0.347,0.64-0.121,1.66-.572,3.2-4.331,6.87a1.95,1.95,0,0,0-.121,1.2,0.959,0.959,0,0,0,.866.75c0.909,0,2.163-1.01,2.879-1.65a8.967,8.967,0,0,1,1.835-4.29c1.525-1.9,3.17-3.52,3.724-3.52,0.295,0,.364.42,0.347,0.64-0.121,1.66-.571,3.2-4.331,6.87a1.95,1.95,0,0,0-.121,1.2,3.342,3.342,0,0,0,1.952,1.03c0.6,0,4.845-.45,8.05-0.94a4.353,4.353,0,0,1,1.109-3.3,3.181,3.181,0,0,1,4.151-.62,10.89,10.89,0,0,0,4.372-4.38,9.9,9.9,0,0,0,.51-6.81s-2.6-1.85-1.684-4.74c0.858-2.69,3.021-2.96,4.772-2.09h0C642.033,3069.13,639.4,3077.59,637.542,3081.33Zm-32.915,4.32c-4.123,1.27-4.625,2.34-4.625,3.19a0.346,0.346,0,0,0,.347.35c0.346-.07.883-0.01,4.313-3.51Zm5.011-.09a10.721,10.721,0,0,0,2.616-3.82c-0.848.41-1.836,1.99-2.65,3.79Zm5.2,0a10.721,10.721,0,0,0,2.616-3.82c-0.848.41-1.836,1.99-2.65,3.79Z" transform="translate(-593 -3066.09)"/>
</svg>
